# xmcd CD database file
#
# Track frame offsets:
#	150
#	27083
#	61556
#	95957
#	129821
#	183639
#
# Disc length: 2747 seconds
#
# Revision: 0
# Processed by: cddbd v1.5.2PL0 Copyright (c) Steve Scherf et al.
# Submitted via: CDex 1.51
#
DISCID=460ab906
DTITLE=Heloísa Fernandes - Candeias
DYEAR=2009
DGENRE=Jazz
TTITLE0=Rebuliço
TTITLE1=Catirinha
TTITLE2=Antoninho
TTITLE3=Candeias
TTITLE4=Praiás
TTITLE5=Andarilho
EXTD=YEAR: 2009
EXTT0=
EXTT1=
EXTT2=
EXTT3=
EXTT4=
EXTT5=
PLAYORDER=
